<?xml version="1.0" encoding="UTF-8" standalone="no"?>
<!-- Created with Inkscape (http://www.inkscape.org/) -->

<svg
   width="153.04332mm"
   height="25.336206mm"
   viewBox="0 0 153.04332 25.336206"
   version="1.1"
   id="svg13782"
   inkscape:version="1.1.1 (3bf5ae0d25, 2021-09-20)"
   sodipodi:docname="Citroen 2021.svg"
   xmlns:inkscape="http://www.inkscape.org/namespaces/inkscape"
   xmlns:sodipodi="http://sodipodi.sourceforge.net/DTD/sodipodi-0.dtd"
   xmlns="http://www.w3.org/2000/svg"
   xmlns:svg="http://www.w3.org/2000/svg">
  <sodipodi:namedview
     id="namedview13784"
     pagecolor="#ffffff"
     bordercolor="#666666"
     borderopacity="1.0"
     inkscape:pageshadow="2"
     inkscape:pageopacity="0.0"
     inkscape:pagecheckerboard="0"
     inkscape:document-units="mm"
     showgrid="false"
     fit-margin-top="0"
     fit-margin-left="0"
     fit-margin-right="0"
     fit-margin-bottom="0"
     inkscape:zoom="0.71000982"
     inkscape:cx="342.953"
     inkscape:cy="196.47616"
     inkscape:window-width="1920"
     inkscape:window-height="989"
     inkscape:window-x="-9"
     inkscape:window-y="-9"
     inkscape:window-maximized="1"
     inkscape:current-layer="layer1" />
  <defs
     id="defs13779" />
  <g
     inkscape:label="Layer 1"
     inkscape:groupmode="layer"
     id="layer1"
     transform="translate(-25.770058,-96.395078)">
    <g
       id="g13980">
      <path
         d="m 159.41879,121.42346 h 6.00286 v -10.59015 c 3.50963,3.29367 6.24944,6.49549 8.31235,10.59015 h 5.07938 v -19.79482 h -6.00339 v 8.34244 c -2.73981,-3.04763 -6.58789,-6.31069 -10.15877,-8.68142 h -3.23243 z m -16.19278,0 h 13.42182 v -5.23356 h -7.41896 v -2.21656 h 5.84921 v -4.98752 h -5.84921 v -2.09353 h 6.86509 v -5.23303 h -12.86795 z m 9.32769,-20.59581 c 1.20068,0 2.21656,-1.015337 2.21656,-2.247175 0,-1.2313 -1.01588,-2.185397 -2.21656,-2.185397 -1.26192,0 -2.27834,0.954097 -2.27834,2.185397 0,1.231838 1.01642,2.247175 2.27834,2.247175 m -5.72565,0 c 1.20014,0 2.21601,-1.015337 2.21601,-2.247175 0,-1.2313 -1.01587,-2.185397 -2.21601,-2.185397 -1.263,0 -2.27834,0.954097 -2.27834,2.185397 0,1.231838 1.01534,2.247175 2.27834,2.247175 m -16.0703,15.51643 c -2.30842,0 -3.7863,-1.97051 -3.7863,-5.0493 0,-2.89345 1.35432,-4.55613 3.7863,-4.55613 2.33958,0 3.84862,1.81632 3.84862,4.55613 0,3.29421 -1.35486,5.0493 -3.84862,5.0493 m 0,5.38721 c 6.06517,0 10.00512,-4.12529 10.00512,-10.40535 0,-5.87984 -4.12475,-9.9745 -10.00512,-9.9745 -5.81806,0 -9.94334,4.12528 -9.94334,9.9745 0,6.31068 3.90932,10.40535 9.94334,10.40535 m -21.24154,-11.48301 v -3.84808 h 1.75508 c 1.0465,0 1.69331,0.64681 1.69331,1.84695 0,1.20068 -0.64681,2.00113 -1.69331,2.00113 z m -5.94162,11.17518 h 5.94162 v -6.46486 h 1.04703 c 1.69331,1.93935 3.04763,3.9711 3.81746,6.46486 h 6.12642 c -0.76983,-3.17119 -2.34011,-5.72619 -4.77209,-8.15817 2.12415,-1.13944 3.17119,-2.89399 3.17119,-5.01814 0,-4.30955 -2.73981,-6.58789 -7.69617,-6.58789 h -7.63546 z m -13.175771,0 h 6.003395 v -14.40761 h 5.018136 v -5.35659 H 85.381217 v 5.35659 h 5.017602 z m -13.175236,0 h 6.002858 v -19.7642 h -6.002858 z m -9.697296,0.30783 c 3.232432,0 5.849214,-1.1389 7.850346,-3.63266 l -3.540257,-3.78684 c -1.077657,1.17005 -2.278336,2.03229 -4.063506,2.03229 -2.678562,0 -4.094665,-1.66269 -4.094665,-4.98752 0,-2.98585 1.447262,-4.55613 3.909862,-4.61791 1.569747,-0.0306 3.04763,0.67743 3.817461,1.63206 l 3.417235,-4.15644 c -1.693844,-1.75455 -4.46427,-2.86283 -7.234696,-2.86283 -5.818592,0 -10.066901,4.21715 -10.066901,10.00512 0,6.28006 3.940484,10.37473 10.005121,10.37473"
         style="fill:#000000;fill-opacity:1;fill-rule:nonzero;stroke:none;stroke-width:0.537217"
         id="path13692" />
      <g
         id="g13694"
         transform="matrix(0.53721655,0,0,-0.53721655,50.648556,116.98997)"
         style="fill:#000000">
        <path
           d="m 0,0 c -0.676,0.734 -16.587,17.944 -22.345,17.944 -5.759,0 -21.671,-17.21 -22.345,-17.944 -0.067,-0.073 -1.62,-1.812 -1.62,-3.841 0,-1.579 0.108,-3.167 0.108,-3.183 0.005,-0.073 0.041,-0.744 0.422,-0.927 0.061,-0.03 0.129,-0.045 0.197,-0.045 0.139,0 0.293,0.06 0.461,0.178 0.006,0.005 0.012,0.009 0.016,0.013 0.435,0.377 16.427,14.172 22.761,14.172 6.335,0 22.325,-13.793 22.752,-14.164 0.004,-0.006 0.01,-0.009 0.016,-0.013 0.174,-0.124 0.33,-0.186 0.472,-0.186 0.068,0 0.134,0.016 0.195,0.045 0.38,0.183 0.418,0.854 0.421,0.93 0.001,0.013 0.107,1.601 0.107,3.18 C 1.618,-1.812 0.066,-0.073 0,0"
           style="fill:#000000;fill-opacity:1;fill-rule:nonzero;stroke:none"
           id="path13696" />
      </g>
      <g
         id="g13698"
         transform="matrix(0.53721655,0,0,-0.53721655,50.648556,108.19423)"
         style="fill:#000000">
        <path
           d="m 0,0 c -0.676,0.734 -16.587,17.944 -22.345,17.944 -5.759,0 -21.671,-17.21 -22.345,-17.944 -0.067,-0.073 -1.62,-1.812 -1.62,-3.841 0,-1.579 0.108,-3.168 0.108,-3.183 0.005,-0.073 0.041,-0.744 0.422,-0.927 0.061,-0.03 0.129,-0.045 0.197,-0.045 0.139,0 0.293,0.06 0.461,0.178 0.006,0.005 0.012,0.009 0.016,0.013 0.435,0.377 16.427,14.172 22.761,14.172 6.335,0 22.325,-13.795 22.752,-14.165 0.004,-0.005 0.01,-0.008 0.016,-0.013 0.174,-0.124 0.33,-0.185 0.472,-0.185 0.068,0 0.134,0.016 0.195,0.045 0.38,0.183 0.418,0.854 0.421,0.93 0.001,0.012 0.107,1.601 0.107,3.18 C 1.618,-1.812 0.066,-0.073 0,0"
           style="fill:#000000;fill-opacity:1;fill-rule:nonzero;stroke:none"
           id="path13700" />
      </g>
    </g>
  </g>
</svg>
