<?xml version="1.0" encoding="UTF-8" standalone="no"?>
<svg
   width="238.8"
   height="33.433807"
   viewBox="0 0 238.80001 33.433807"
   id="Layer_1"
   overflow="hidden"
   version="1.1"
   xmlns="http://www.w3.org/2000/svg"
   xmlns:svg="http://www.w3.org/2000/svg">
  <defs
     id="defs8" />
  <path
     d="m 3.51,1.6734287 c 1.475,-1.17999999 3.334,-1.77199999 5.22,-1.65999999 0,3.71999999 0,7.43999999 0,11.16000029 0.03,0.9 0.784,1.605 1.684,1.574 0.025,-0.001 0.051,-0.002 0.076,-0.004 h 22.53 c 1.883,-0.059 3.718,0.603 5.13,1.85 1.333,1.277 2.084,3.044 2.08,4.89 0,2.26 0,4.517 0,6.77 -0.017,2.234 -1.065,4.334 -2.84,5.69 -1.33,0.982 -2.947,1.496 -4.6,1.46 H 0 c 1.49,-2.38 3,-4.77 4.46,-7.15 8.7,0 17.4,0 26.1,0 0.895,0.1 1.701,-0.545 1.8,-1.44 0.006,-0.05 0.009,-0.1 0.01,-0.15 0,-1.6 0,-3.2 0,-4.8 H 8.47 c -1.817,0.075 -3.605,-0.472 -5.07,-1.55 -1.547,-1.239 -2.454,-3.108 -2.47,-5.09 0,-2.033 0,-4.0700003 0,-6.1100003 0.021,-2.104 0.965,-4.092 2.58,-5.44 z"
     fill="#0d392e"
     id="path3" />
  <path
     d="M 12.07,0.02342871 H 39.49 C 38.07,2.3134287 36.6,4.5734287 35.2,6.8734287 c -6.26,0.07 -12.53,0 -18.79,0 z"
     fill="#0d392e"
     id="path4" />
  <path
     d="m 48.85,0.03342871 h 8 c 0,4.27299999 0,8.54299999 0,12.81000029 3.73,0 7.47,0 11.2,0 4.39,-4.2700003 8.76,-8.5800003 13.18,-12.83000029 3.65,0 7.31,0 11,0 C 86.377,5.6464287 80.523,11.280429 74.67,16.913429 c 5.787,5.493 11.57,10.99 17.35,16.49 -3.7,0 -7.39,0 -11.09,0 -4.487,-4.333 -8.973,-8.667 -13.46,-13 -3.51,0 -7,0 -10.54,0 0,4.34 0,8.673 0,13 h -8 c -0.053,-11.12 -0.08,-22.243 -0.08,-33.37000029 z"
     fill="#0d392e"
     id="path5" />
  <path
     d="m 103.88,0.31342871 c 1.071,-0.202 2.161,-0.29 3.25,-0.26 6,0 12,0 18,0 3.626,0.02 7.052,1.66899999 9.33,4.48999999 1.642,2.083 2.537,4.657 2.54,7.3100003 0,3.31 0,6.62 0,9.93 -0.053,3.508 -1.67,6.809 -4.41,9 -2.195,1.7 -4.894,2.619 -7.67,2.61 h -16.66 c -1.195,0.044 -2.392,-0.003 -3.58,-0.14 -5.9,-0.739 -10.316,-5.774 -10.28,-11.72 0,-3.31 0,-6.62 0,-9.92 0.061,-3.2810003 1.489,-6.3870003 3.94,-8.5700003 1.579,-1.374 3.488,-2.31499999 5.54,-2.72999999 z m 1.3,7.36999999 c -1.662,0.478 -2.805,2.001 -2.8,3.7300003 0,3.6 0,7.2 0,10.8 0.081,2.073 1.785,3.712 3.86,3.71 h 18.93 c 2.063,-0.003 3.759,-1.629 3.85,-3.69 0,-3.673 0,-7.34 0,-11 -0.102,-2.0610003 -1.806,-3.6780003 -3.87,-3.6700003 h -17.54 c -0.808,-0.067 -1.621,-0.033 -2.42,0.1 z"
     fill="#0d392e"
     id="path6" />
  <path
     d="m 145.93,0.03342871 h 29 c 2.332,-0.019 4.623,0.618 6.61,1.83999999 3.3,2.062 5.367,5.622 5.52,9.5100003 0,2.25 0,4.5 0,6.76 0,2.26 0.19,4.78 -0.57,7.06 -1.197,3.756 -4.204,6.657 -8,7.72 -2.18,0.67 -4.48,0.48 -6.73,0.5 h -25.82 c -0.007,-11.133 -0.01,-22.263 -0.01,-33.39000029 z m 8,7.48999999 c 0,6.1270003 0,12.2530003 0,18.3800003 h 21.23 c 1.569,0.024 2.997,-0.9 3.62,-2.34 0.283,-0.798 0.392,-1.647 0.32,-2.49 0,-3.3 0,-6.6 0,-9.9 -0.112,-2.0700003 -1.837,-3.6840003 -3.91,-3.6600003 z"
     fill="#0d392e"
     id="path7" />
  <path
     d="m 209.01,0.03342871 h 11 C 226.27,11.146429 232.533,22.273429 238.8,33.413429 c -3,0 -6.07,0 -9.1,0 -1.15,-2 -2.26,-4 -3.41,-6 H 210.4 l -4.14,-6.56 -7.06,12.58 c -3,0 -5.93,0 -8.89,0 6.22,-11.14 12.453,-22.273 18.7,-33.40000029 z M 206.4,20.473429 h 16 c -2.66,-4.75 -5.35,-9.48 -8,-14.2400003 -2.66,4.7300003 -5.29,9.5000003 -8,14.2400003 z"
     fill="#0d392e"
     id="path8" />
</svg>
