<?xml version="1.0" encoding="UTF-8" standalone="no"?>
<svg
   xmlns:dc="http://purl.org/dc/elements/1.1/"
   xmlns:cc="http://creativecommons.org/ns#"
   xmlns:rdf="http://www.w3.org/1999/02/22-rdf-syntax-ns#"
   xmlns:svg="http://www.w3.org/2000/svg"
   xmlns="http://www.w3.org/2000/svg"
   version="1.1"
   id="svg7851"
   width="300"
   height="44.174263"
   viewBox="0 0 300 44.174264">
  <metadata
     id="metadata7864">
    <rdf:RDF>
      <cc:Work
         rdf:about="">
        <dc:format>image/svg+xml</dc:format>
        <dc:type
           rdf:resource="http://purl.org/dc/dcmitype/StillImage" />
        <dc:title></dc:title>
      </cc:Work>
    </rdf:RDF>
  </metadata>
  <defs
     id="defs7853">
    <clipPath
       id="a">
      <path
         id="path7856"
         d="M0 27.584h594.993V841.89H0V27.584z" />
    </clipPath>
  </defs>
  <g
     id="g7858"
     transform="matrix(2.50305 0 0 -2.50305 -69.245 128.612)"
     clip-path="url(#a)">
    <path
       id="path7860"
       fill="#c90c41"
       d="M110.4223 41.0356c1.255 2.982 2.478 5.867 2.511 5.945.072.164.198.237.396.258.089.008.294.012.502.012.197 0 .397-.004.467-.012.175-.025.332-.103.403-.291.307-.834 1.351-3.353 2.422-5.912h-6.701zm8.424 7.289c-1.23 2.844-.768 2.529-3.484 2.623-.249.01-.794.02-1.605.022-.813 0-1.026-.006-1.646-.018-2.557-.045-2.156.131-3.031-1.711.001 0-4.395-10.027-6.303-14.195l-.086-.176c-.358-.705-.095-.73.473-.73l3.985.003c.253 0 .421.155.486.295 0 0 .548 1.305 1.301 3.069h9.674c.723-1.719 1.263-2.996 1.292-3.059.084-.195.269-.314.486-.314l4.106.007c.61 0 .741-.078.508.473-.731 1.734-5.472 12.121-6.156 13.711M56.9783 50.9575h-4.033c-.318 0-.408-.156-.408-.43v-15.875c0-.437.099-.513.542-.513h3.819c.429 0 .519.101.519.511v15.868c0 .31-.097.439-.439.439M47.9476 50.9614h-3.299c-.439 0-.519-.102-.519-.516l-.002-12.57s-6.634 10.332-7.494 11.666c-.997 1.541-1.35 1.44-4.236 1.44-2.891 0-3.812-.02-3.812-.02-.441-.002-.522-.102-.522-.512l.009-15.797c0-.429.095-.515.522-.515l3.306.002c.447 0 .531.101.531.511l-.004 12.393s5.451-8.561 7.288-11.437c.929-1.456 1.094-1.465 3.767-1.467l4.466.002c.435 0 .528.082.528.515v15.791c0 .416-.078.514-.529.514M146.5864 50.9614h-3.296c-.438 0-.521-.102-.521-.516l-.002-12.57s-6.624 10.332-7.49 11.666c-.996 1.541-1.347 1.44-4.241 1.44-2.882 0-3.81-.02-3.81-.02-.438-.002-.521-.102-.521-.512l.009-15.797c.001-.429.095-.515.522-.515l3.307.002c.447 0 .528.101.528.511l-.003 12.393s5.451-8.561 7.289-11.437c.929-1.456 1.09-1.465 3.771-1.467l4.46.002c.436 0 .53.082.53.515v15.791c0 .416-.079.514-.532.514M74.302 44.5102c-1.59.156-5.935.568-7.359.697-.521.051-.666.354-.709.694-.02.152-.02.277-.02.379 0 .154.007.236.02.351.047.477.293.672.802.672.327 0 11.777-.002 11.777-.002.428-.002.535.08.535.518v2.675c0 .405-.123.475-.534.477h-11.96c-3.115 0-4.872-1.137-5.351-3.488-.106-.528-.128-1.172-.128-1.627 0-.551.035-1.117.095-1.553.185-1.348 1.004-2.932 4.589-3.285 2.85-.281 6.949-.627 8.326-.746.624-.053.735-.524.774-.789.016-.102.024-.254.024-.455 0-.178 0-.366-.024-.625-.032-.373-.202-.549-.69-.549H61.978c-.438 0-.528-.09-.528-.518v-2.666c0-.433.104-.519.525-.519h12.333c3.055 0 5.055.517 5.592 3.17.114.56.135 1.293.135 1.806 0 .793-.054 1.504-.106 1.77-.551 2.783-2.648 3.32-5.627 3.613M95.9467 44.5102c-1.592.156-5.934.568-7.359.697-.521.051-.668.354-.712.694-.014.152-.014.277-.014.379 0 .154.008.236.014.351.05.477.293.672.813.672.32 0 11.773-.002 11.773-.002.423-.002.528.08.528.518v2.675c0 .405-.121.475-.528.477h-11.963c-3.115 0-4.873-1.137-5.35-3.488-.106-.528-.129-1.172-.129-1.627 0-.551.034-1.117.094-1.553.188-1.348 1.004-2.932 4.587-3.285 2.849-.281 6.954-.627 8.33-.746.62-.053.734-.524.774-.789.015-.102.022-.254.022-.455 0-.178 0-.366-.022-.625-.033-.373-.202-.549-.688-.549h-12.494c-.441 0-.527-.09-.528-.518l.002-2.666c-.002-.433.104-.519.524-.519h12.331c3.055 0 5.052.517 5.592 3.17.111.56.136 1.293.136 1.806 0 .793-.056 1.504-.11 1.77-.552 2.783-2.645 3.32-5.623 3.613" />
  </g>
</svg>
