<?xml version="1.0" encoding="UTF-8" standalone="no"?>
<!DOCTYPE svg PUBLIC "-//W3C//DTD SVG 1.1//EN" "http://www.w3.org/Graphics/SVG/1.1/DTD/svg11.dtd">
<svg width="100%" height="100%" viewBox="0 0 709 176" version="1.1" xmlns="http://www.w3.org/2000/svg" xmlns:xlink="http://www.w3.org/1999/xlink" xml:space="preserve" xmlns:serif="http://www.serif.com/" style="fill-rule:evenodd;clip-rule:evenodd;stroke-linejoin:round;stroke-miterlimit:2;">
    <g transform="matrix(1,0,0,1,-531.259,-96.3025)">
        <g transform="matrix(1,0,0,1,-574.253,14.1363)">
            <g>
                <g id="Rolls-Royce">
                    <path d="M1381.27,161.716C1384.41,168.625 1390.79,172.891 1396.91,172.891C1404.99,172.891 1411.09,166.373 1411.09,158.195C1411.09,150.933 1407.9,146.871 1394.19,137.132C1381.9,128.408 1377.37,122.014 1377.37,112.699C1377.37,102.709 1384.72,93.215 1397.02,93.215C1405.87,93.215 1413.84,98.32 1416.29,106.537L1409.53,109.996C1407.36,103.977 1402.34,100.665 1396.85,100.665C1390.38,100.665 1385.15,105.75 1385.15,112.028C1385.15,117.693 1387.69,123.483 1398.49,130.945C1413.43,141.181 1419.03,147.146 1419.03,158.195C1419.03,170.821 1409.65,180.341 1396.74,180.341C1386.84,180.341 1377.43,173.974 1374.31,165.25L1381.27,161.716ZM1278.21,170.969L1278.21,95.06L1269.94,95.06L1269.94,178.449L1311.55,178.449L1313.52,170.969L1278.21,170.969ZM1331.82,170.969L1331.82,95.06L1323.56,95.06L1323.56,178.449L1365.16,178.449L1367.14,170.969L1331.82,170.969ZM1810.81,139.522L1810.81,132.042L1777.31,132.042L1777.31,102.539L1812.63,102.539L1812.63,95.059L1769.05,95.059L1769.05,178.449L1812.21,178.449L1814.17,170.969L1777.31,170.969L1777.31,139.522L1810.81,139.522ZM1655.79,178.449L1655.79,140.794L1685.03,95.06L1675.41,95.06L1651.99,133.202L1628.38,95.06L1618.61,95.06L1647.53,140.79L1647.53,178.449L1655.79,178.449ZM1455.01,140.307L1455.01,132.988L1428.05,132.988L1428.05,140.307L1455.01,140.307ZM1757.8,166.726L1758.48,166.019L1752.9,161.227L1752.21,161.91C1745.08,169.042 1736.34,172.825 1725.68,172.825C1705.69,172.825 1690.37,157.151 1690.37,136.696C1690.37,116.918 1706.45,100.566 1726.34,100.566C1736.92,100.566 1745.62,104.276 1752.04,110.977L1752.87,111.846L1757.69,105.782L1757.13,105.201C1749.95,97.711 1739.45,93.104 1726.55,93.104C1702.04,93.104 1682.46,112.806 1682.46,137.022C1682.46,161.707 1700.71,180.294 1725.4,180.294C1738.45,180.294 1749.79,175.058 1757.8,166.726ZM1160.06,178.449L1134.24,136.211L1113.77,136.211L1113.77,178.449L1105.51,178.449L1105.51,82.166L1134.27,82.166C1150.43,82.166 1162.62,93.783 1162.62,109.188C1162.62,121.863 1154.63,132.045 1142.58,135.01L1169.95,178.449L1160.06,178.449ZM1135.38,128.441C1147.91,128.441 1154.47,118.756 1154.47,109.188C1154.47,98.212 1145.83,89.935 1134.38,89.935L1113.77,89.935L1113.77,128.441L1135.38,128.441ZM1214.95,180.294C1190.22,180.294 1171.57,161.646 1171.57,136.917C1171.57,112.411 1190.62,93.215 1214.95,93.215C1239.64,93.215 1258.16,112.273 1258.16,136.592C1258.16,160.738 1239.09,180.294 1214.95,180.294ZM1214.62,100.752C1195.08,100.752 1179.77,116.638 1179.77,136.918C1179.77,154.531 1193.05,172.75 1215.28,172.75C1234.73,172.75 1249.96,156.867 1249.96,136.591C1249.96,113.313 1231.75,100.752 1214.62,100.752ZM1521.96,178.449L1496.14,136.211L1475.67,136.211L1475.67,178.449L1467.41,178.449L1467.41,82.166L1496.17,82.166C1512.33,82.166 1524.52,93.783 1524.52,109.188C1524.52,121.863 1516.53,132.045 1504.48,135.01L1531.85,178.449L1521.96,178.449ZM1497.28,128.441C1509.81,128.441 1516.37,118.756 1516.37,109.188C1516.37,98.212 1507.73,89.935 1496.28,89.935L1475.67,89.935L1475.67,128.441L1497.28,128.441ZM1576.85,180.294C1552.12,180.294 1533.47,161.646 1533.47,136.917C1533.47,112.411 1552.53,93.215 1576.85,93.215C1601.54,93.215 1620.06,112.273 1620.06,136.592C1620.06,160.738 1600.99,180.294 1576.85,180.294ZM1576.52,100.752C1556.98,100.752 1541.67,116.638 1541.67,136.918C1541.67,154.531 1554.95,172.75 1577.18,172.75C1596.63,172.75 1611.86,156.867 1611.86,136.591C1611.86,113.313 1593.65,100.752 1576.52,100.752ZM1312.29,223.992C1302.96,223.992 1295.38,231.582 1295.38,240.913C1295.38,250.809 1302.49,257.991 1312.29,257.991C1321.61,257.991 1329.2,250.401 1329.2,241.07C1329.2,231.175 1322.09,223.992 1312.29,223.992ZM1312.29,253.011C1305.56,253.011 1300.68,247.923 1300.68,240.912C1300.68,234.217 1305.78,228.972 1312.29,228.972C1319.01,228.972 1323.89,234.06 1323.89,241.071C1323.89,247.766 1318.8,253.011 1312.29,253.011ZM1333.29,229.444L1342.56,229.444L1342.56,257.336L1347.76,257.336L1347.76,229.444L1356.7,229.444L1356.7,224.648L1333.29,224.648L1333.29,229.444ZM1378.03,223.992C1368.7,223.992 1361.11,231.582 1361.11,240.913C1361.11,250.809 1368.22,257.991 1378.03,257.991C1387.35,257.991 1394.94,250.401 1394.94,241.07C1394.94,231.175 1387.83,223.992 1378.03,223.992ZM1378.03,253.011C1371.3,253.011 1366.42,247.923 1366.42,240.912C1366.42,234.217 1371.52,228.972 1378.03,228.972C1384.75,228.972 1389.63,234.06 1389.63,241.071C1389.63,247.766 1384.54,253.011 1378.03,253.011ZM1272.27,242.296L1262.04,224.648L1257.08,224.648L1257.08,257.336L1262.12,257.336L1262.12,234.079L1270.59,248.23L1273.58,248.23L1281.8,234.2L1281.8,257.336L1286.84,257.336L1286.84,224.648L1282.35,224.648L1272.27,242.296ZM1556.16,238.224C1552.08,235.559 1551.34,234.081 1551.34,232.131C1551.34,230.638 1552.41,229.032 1554.75,229.032C1556.83,229.032 1558.42,230.414 1559,232.73L1563.52,231.711C1562.7,227.252 1559.34,224.482 1554.75,224.482C1549.2,224.482 1546.3,228.572 1546.3,232.613C1546.3,236.995 1548.88,239.541 1553.34,242.448C1557.78,245.572 1558.98,246.745 1558.98,249.047C1558.98,251.591 1557.4,253.109 1554.75,253.109C1551.33,253.109 1549.85,250.214 1549.21,247.786L1544.52,248.983C1545.37,252.945 1547.84,257.667 1554.75,257.667C1559.36,257.667 1564.02,254.592 1564.02,248.715C1564.02,243.969 1561.63,241.875 1556.16,238.224ZM1536.37,234.405C1536.37,228.569 1532.05,224.648 1525.63,224.648L1516.04,224.648L1516.04,257.336L1521.25,257.336L1521.25,243.839L1525.36,243.839L1533.66,257.336L1539.52,257.336L1530.59,242.939C1534.32,241.384 1536.37,238.374 1536.37,234.405ZM1525.82,239.314L1521.25,239.314L1521.25,229.497L1525.65,229.497C1529.24,229.497 1531.38,231.269 1531.38,234.239C1531.38,235.429 1530.98,239.314 1525.82,239.314ZM1491.3,224.648L1478.73,257.336L1484.33,257.336L1487.52,248.187L1499.39,248.187L1502.53,257.336L1508.29,257.336L1495.88,224.648L1491.3,224.648ZM1489.12,243.582L1493.51,230.997L1497.82,243.582L1489.12,243.582ZM1423.65,234.405C1423.65,228.569 1419.33,224.648 1412.91,224.648L1403.32,224.648L1403.32,257.336L1408.51,257.336L1408.51,243.839L1412.64,243.839L1420.94,257.336L1426.8,257.336L1417.86,242.939C1421.6,241.384 1423.65,238.375 1423.65,234.405ZM1413.1,239.314L1408.51,239.314L1408.51,229.497L1412.93,229.497C1416.52,229.497 1418.66,231.269 1418.66,234.239C1418.66,235.429 1418.26,239.314 1413.1,239.314ZM1461.39,228.972C1464.93,228.972 1467.68,230.071 1470.04,232.432L1473.62,229.197C1470.34,225.598 1466.57,223.992 1461.39,223.992C1452.15,223.992 1444.63,231.728 1444.63,241.237C1444.63,250.945 1451.47,257.991 1460.9,257.991C1465.87,257.991 1470.27,256.14 1473.61,252.636L1470.03,249.403C1467.71,251.865 1464.89,252.951 1461.22,252.951C1455.73,252.951 1450,249.355 1450,241.07C1450,234.207 1454.87,228.972 1461.39,228.972ZM1646.55,224.74L1646.55,224.74L1639.19,224.74L1639.19,224.74L1634.85,224.74L1634.85,257.336L1647.15,257.336L1647.15,257.333C1656.71,257.275 1662.61,249.913 1662.61,241.28C1662.61,232.292 1655.38,224.74 1646.55,224.74ZM1647.01,252.59L1640.05,252.59L1640.05,229.498L1646.55,229.498C1653.14,229.498 1657.71,233.813 1657.71,241.038C1657.71,247.461 1654.39,252.59 1647.01,252.59ZM1589.29,252.539L1589.29,224.648L1584.09,224.648L1584.09,257.336L1602.71,257.336L1602.71,252.539L1589.29,252.539ZM1604.52,229.444L1613.79,229.444L1613.79,257.336L1618.99,257.336L1618.99,229.444L1627.94,229.444L1627.94,224.648L1604.52,224.648L1604.52,229.444Z" style="fill-rule:nonzero;"/>
                </g>
            </g>
        </g>
    </g>
</svg>
