<?xml version="1.0" encoding="UTF-8" standalone="no"?>
<!-- Created with Inkscape (http://www.inkscape.org/) -->

<svg
   width="1057.0311"
   height="1003.0208"
   viewBox="0 0 1057.0311 1003.0208"
   version="1.1"
   id="svg8"
   inkscape:version="1.2.2 (1:1.2.2+202212051550+b0a8486541)"
   sodipodi:docname="pontiac3.svg"
   xmlns:inkscape="http://www.inkscape.org/namespaces/inkscape"
   xmlns:sodipodi="http://sodipodi.sourceforge.net/DTD/sodipodi-0.dtd"
   xmlns="http://www.w3.org/2000/svg"
   xmlns:svg="http://www.w3.org/2000/svg"
   xmlns:rdf="http://www.w3.org/1999/02/22-rdf-syntax-ns#"
   xmlns:cc="http://creativecommons.org/ns#"
   xmlns:dc="http://purl.org/dc/elements/1.1/">
  <defs
     id="defs2" />
  <sodipodi:namedview
     id="base"
     pagecolor="#ffffff"
     bordercolor="#666666"
     borderopacity="1.0"
     inkscape:pageopacity="0.0"
     inkscape:pageshadow="2"
     inkscape:zoom="0.7"
     inkscape:cx="272.14286"
     inkscape:cy="459.28571"
     inkscape:document-units="px"
     inkscape:current-layer="layer1"
     showgrid="true"
     units="pt"
     inkscape:snap-bbox="true"
     inkscape:bbox-paths="true"
     inkscape:bbox-nodes="true"
     inkscape:object-paths="true"
     inkscape:snap-intersection-paths="true"
     inkscape:snap-smooth-nodes="true"
     inkscape:snap-page="true"
     inkscape:snap-text-baseline="true"
     inkscape:window-width="1920"
     inkscape:window-height="1029"
     inkscape:window-x="0"
     inkscape:window-y="0"
     inkscape:window-maximized="1"
     inkscape:snap-grids="false"
     inkscape:showpageshadow="2"
     inkscape:pagecheckerboard="0"
     inkscape:deskcolor="#d1d1d1">
    <inkscape:grid
       type="xygrid"
       id="grid10"
       originx="-0.00016583724"
       originy="0"
       units="px"
       spacingx="0.99999997"
       spacingy="0.99999997" />
  </sodipodi:namedview>
  <metadata
     id="metadata5">
    <rdf:RDF>
      <cc:Work
         rdf:about="">
        <dc:format>image/svg+xml</dc:format>
        <dc:type
           rdf:resource="http://purl.org/dc/dcmitype/StillImage" />
      </cc:Work>
    </rdf:RDF>
  </metadata>
  <g
     inkscape:label="Layer 1"
     inkscape:groupmode="layer"
     id="layer1"
     transform="translate(-1.6583724e-4)">
    <g
       id="g415"
       style="fill:#000000">
      <path
         style="clip-rule:nonzero;fill:#000000;fill-opacity:1;fill-rule:nonzero;stroke:none;stroke-width:13.3333"
         d="m 175.26056,931.1979 c 0,-34.84375 21.09373,-65.05209 60.4688,-66.875 15.57293,-0.93746 35.7292,-0.93746 50.36453,0 40.31253,1.82291 59.53133,32.96875 59.53133,66.875 0,37.55208 -20.15626,66.875 -59.53133,69.5833 -13.75,0.9375 -35.7292,0.9375 -50.36453,0 -39.37507,-2.7083 -60.4688,-32.96873 -60.4688,-69.5833 z m 104.42707,41.19791 c 22.91666,-1.82291 35.72919,-18.33334 35.72919,-41.19791 0,-22.91667 -12.81253,-38.48959 -35.72919,-39.375 -9.16667,-0.93746 -28.38534,-0.93746 -37.552,0 -24.7396,1.82291 -35.7292,18.28125 -35.7292,39.375 0,21.04167 10.9896,38.43749 35.7292,41.19791 8.22906,0.93746 28.38533,0.93746 37.552,0"
         id="path148" />
      <path
         style="clip-rule:nonzero;fill:#000000;fill-opacity:1;fill-rule:nonzero;stroke:none;stroke-width:13.3333"
         d="M 112.65643,864.68749 H 3.6460324 c -1.8229333,0 -3.64586656276,0.93747 -3.64586656276,3.64583 v 129.16666 c 0,1.82292 1.82293326276,3.69792 4.58333326276,3.69792 H 27.500165 c 2.7084,0 3.645867,-1.875 3.645867,-3.69792 V 895.83331 c 0,-2.76041 1.822933,-3.64582 3.645866,-3.64582 h 74.218662 c 11.92707,0 21.04174,10.98957 21.04174,22.86457 0,12.86459 -9.11467,24.73959 -21.04174,24.73959 H 44.896031 c -1.822933,0 -3.698,1.82292 -3.698,3.69792 v 21.04166 c 0,0.93747 1.875067,2.76042 3.698,2.76042 h 67.760399 c 27.5,0 46.7188,-22.91667 46.7188,-52.23959 0,-27.4479 -19.2188,-50.36457 -46.7188,-50.36457"
         id="path2708"
         clip-path="none" />
      <path
         style="clip-rule:nonzero;fill:#000000;fill-opacity:1;fill-rule:nonzero;stroke:none;stroke-width:13.3333"
         d="m 460.72935,988.33331 c 5.5208,9.16667 15.57294,14.68749 26.56254,14.68749 19.2708,0 31.14573,-12.86457 31.14573,-32.08331 V 868.33332 c 0,-2.70834 -1.82293,-3.64583 -4.58333,-3.64583 h -22.86454 c -2.7604,0 -3.69786,0.93747 -3.69786,3.64583 v 96.19791 c 0,1.82292 -1.82294,2.76042 -3.64587,2.76042 -0.93733,0 -1.82293,-0.93747 -2.7604,-0.93747 L 421.35429,876.6146 c -6.40627,-8.28126 -15.57293,-12.81251 -26.5624,-12.81251 -16.51053,0 -31.14587,13.69792 -31.14587,30.20833 v 103.48959 c 0,1.82292 0.93734,3.69789 3.64587,3.69789 h 22.91667 c 2.7604,0 3.64573,-1.87497 3.64573,-3.69789 v -95.26042 c 0,-1.82292 1.82293,-3.64584 3.698,-3.64584 0.88533,0 1.82293,0.88547 2.7604,1.82292 l 60.41666,87.91667"
         id="path2712"
         clip-path="none" />
      <path
         style="clip-rule:nonzero;fill:#000000;fill-opacity:1;fill-rule:nonzero;stroke:none;stroke-width:13.3333"
         d="m 617.39602,895.83331 v 101.66667 c 0,1.82292 -1.87507,3.69792 -2.7604,3.69792 h -23.80214 c -1.87493,0 -3.69786,-1.875 -3.69786,-3.69792 V 895.83331 c 0,-2.76041 -0.88534,-3.64582 -2.7084,-3.64582 h -50.41667 c -1.82293,0 -3.64586,-1.87501 -3.64586,-4.58333 v -19.27084 c 0,-2.70834 1.82293,-3.64583 3.64586,-3.64583 h 137.39587 c 1.82293,0 2.7604,0.93747 2.7604,3.64583 v 20.15625 c 0,1.82291 -0.93734,3.69792 -2.7604,3.69792 h -50.36454 c -1.82293,0 -3.64586,0.88546 -3.64586,3.64582"
         id="path2716"
         clip-path="none" />
      <path
         style="clip-rule:nonzero;fill:#000000;fill-opacity:1;fill-rule:nonzero;stroke:none;stroke-width:13.3333"
         d="m 712.65641,1001.1979 c 1.82294,0 3.64587,-1.875 3.64587,-3.69792 V 868.33332 c 0,-2.70834 -1.82293,-3.64583 -3.64587,-3.64583 h -22.91666 c -1.82293,0 -3.64587,0.93747 -3.64587,3.64583 v 129.16666 c 0,1.82292 1.82294,3.69792 3.64587,3.69792 h 22.91666"
         id="path2720"
         clip-path="none" />
      <path
         style="clip-rule:nonzero;fill:#000000;fill-opacity:1;fill-rule:nonzero;stroke:none;stroke-width:13.3333"
         d="m 866.51054,975.52082 c 0,0 0.93734,0.93747 1.82294,1.82291 l 11.92706,20.15625 c 1.82294,1.82292 3.64587,3.69792 5.5208,3.69792 h 23.80214 c 3.64586,0 3.64586,-1.875 1.82293,-4.58333 L 841.77094,873.85416 c -4.5312,-5.52084 -11.87493,-10.0521 -21.04159,-10.0521 -9.16667,0 -16.4584,4.53126 -20.15627,10.0521 l -71.4584,122.76041 c -0.88533,2.70833 -0.88533,4.58333 1.87507,4.58333 h 24.68746 c 1.87507,0 3.698,-1.875 5.5208,-3.69792 l 56.77094,-98.02084 c 0.93733,-0.88547 1.82293,-1.82291 2.7604,-1.82291 0.93733,0 1.82293,0.93747 2.7604,1.82291 l 24.73959,43.07292 c 0,0.93747 0,0.93747 0,1.82292 0,0.93747 -0.93733,2.76041 -2.7604,2.76041 h -40.31253 c -2.7604,0 -5.4688,1.82292 -6.40626,3.64584 l -11.92707,21.09375 c -0.88533,1.82292 0,3.64584 2.7604,3.64584 h 76.92706"
         id="path2724"
         clip-path="none" />
      <path
         style="clip-rule:nonzero;fill:#000000;fill-opacity:1;fill-rule:nonzero;stroke:none;stroke-width:13.3333"
         d="m 1054.3231,972.76039 c 0.8853,0 2.7082,1.82292 2.7082,3.69792 v 21.04167 c 0,1.82292 -1.8228,3.69792 -2.7082,3.69792 -1.823,0 -71.45843,0 -86.09376,0 -42.18746,0 -64.11466,-33.02084 -64.11466,-69.63543 0,-35.72916 21.9272,-66.87498 63.17719,-66.87498 11.92707,0 85.20823,0 87.03123,0 0.8853,0 2.7082,0.93747 2.7082,3.64583 v 19.27084 c 0,2.70832 -1.8228,4.58333 -2.7082,4.58333 -1.823,0 -69.63549,0 -82.44789,0 -25.6772,0 -37.55213,18.28124 -37.55213,39.37498 0,21.97918 11.87493,41.19792 37.55213,41.19792 16.45826,0 81.51039,0 82.44789,0"
         id="path2728"
         clip-path="none" />
    </g>
    <g
       id="g421">
      <path
         style="fill:#000000;fill-opacity:1;fill-rule:nonzero;stroke:none;stroke-width:13.3333"
         d="m 523.9584,795.98958 c 3.64574,0 6.40614,-2.7605 7.34374,-5.4688 L 735.52079,9.1666998 c 0,-0.937 0,-1.823 0,-1.823 C 735.52079,2.7603999 732.81252,0 730.05212,0 c -1.82293,0 -2.7604,0 -2.7604,0.93699998 L 523.9584,93.436998 322.44787,0.93699998 C 321.51057,0 320.57294,0 319.68747,0 c -3.64573,0 -7.34373,2.7603999 -7.34373,7.3436998 0,0 0,0.886 0.9373,1.823 L 518.43731,790.52078 c 0,2.7083 2.7604,5.4688 5.52093,5.4688"
         id="path2732" />
      <path
         style="fill:#ffffff;fill-opacity:1;fill-rule:nonzero;stroke:none;stroke-width:13.3333"
         d="M 523.9584,738.28118 709.89585,30.208299 523.9584,114.4792 338.90627,30.208299 523.9584,738.28118"
         id="path2734" />
      <path
         style="fill:#c72830;fill-opacity:1;fill-rule:nonzero;stroke:none;stroke-width:13.3333"
         d="M 523.9584,680.57288 687.91666,55.885399 523.9584,130.0521 360.88547,55.885399 523.9584,680.57288"
         id="path2736" />
      <path
         style="fill:#ffffff;fill-opacity:1;fill-rule:nonzero;stroke:none;stroke-width:13.3333"
         d="m 523.9584,152.0312 -11.9272,58.64589 -89.73946,11.9271 89.73946,11.8749 11.9272,56.823 12.8124,-56.823 89.79172,-11.8749 -89.79172,-11.9271 -12.8124,-58.64589"
         id="path2738" />
    </g>
  </g>
</svg>
