<?xml version="1.0" encoding="utf-8"?>
<!-- Generator: Adobe Illustrator 26.0.3, SVG Export Plug-In . SVG Version: 6.00 Build 0)  -->
<svg version="1.1" id="Layer_1" xmlns="http://www.w3.org/2000/svg" xmlns:xlink="http://www.w3.org/1999/xlink" x="0px" y="0px"
	 viewBox="0 0 512 512" style="enable-background:new 0 0 512 512;" xml:space="preserve">
<style type="text/css">
	.st0{fill-rule:evenodd;clip-rule:evenodd;fill:#007934;}
	.st1{fill-rule:evenodd;clip-rule:evenodd;fill:#FFFFFF;}
	.st2{fill-rule:evenodd;clip-rule:evenodd;fill:#C1531B;}
	.st3{fill-rule:evenodd;clip-rule:evenodd;fill:#1F1D24;}
	.st4{fill-rule:evenodd;clip-rule:evenodd;fill:#CB9700;}
	.st5{fill-rule:evenodd;clip-rule:evenodd;fill:#FFCD00;}
	.st6{fill-rule:evenodd;clip-rule:evenodd;fill:#ED2848;}
</style>
<g>
	<path class="st0" d="M317.5,46c4.2-1.4,12.3,2.5,13.8,7.4C326.6,54.9,323.3,46.8,317.5,46z"/>
	<path class="st1" d="M105.9,48.1c1.8,0,3.5,0,5.3,0c-0.3,9.5-0.6,19.1-3.2,23.4C103.3,65.5,107.6,57,105.9,48.1z"/>
	<path class="st0" d="M312.2,51.3c4.1-1.9,8.6,4.8,12.8,6.4c0.2,1.4-6.2,1.4-2.1,3.2C317.9,63.2,317.1,52.5,312.2,51.3z"/>
	<path class="st0" d="M334.5,64.1c4.7,1.7-1.3,9.6-2.1,12.8C325.8,74.3,331.3,66.3,334.5,64.1z"/>
	<path class="st0" d="M341.9,66.2c3.7,2,0.3,4.9,0,8.5C338.9,73,343.4,69.9,341.9,66.2z"/>
	<path class="st0" d="M354.7,73.6c5.9,1,14,4.8,12.8,9.6C362.4,80.8,357.7,78.1,354.7,73.6z"/>
	<path class="st0" d="M350.4,81.1c3.4-2.3,6.6,4.7,10.6,5.3C358,91.5,353.9,82.3,350.4,81.1z"/>
	<path class="st2" d="M337.7,88.5c2.1-2,0.6,8.5,1.1,11.7C336.6,102.2,338.1,91.7,337.7,88.5z"/>
	<path class="st2" d="M334.5,88.5c2.9,1.3,0,5.5,0,7.4C331.6,94.7,334.5,90.4,334.5,88.5z"/>
	<path class="st2" d="M345.1,92.8c4.1,0.5,2,7.2,4.3,9.6C346.3,105,346.9,95,345.1,92.8z"/>
	<path class="st2" d="M373.8,96c0.2-1.2,1.9-0.9,3.2-1.1c9,11.6,14.3,30,21.3,51c6.9,20.9,16.1,40.7,19.1,62.7
		c1,7,0.9,16.1-3.2,22.3c-2.9-37-17.5-79.3-28.7-110.6C382.2,111.2,382.5,100.9,373.8,96z"/>
	<path class="st2" d="M350.4,98.1c5.1,2,4,10.2,5.3,15.9C351.9,110.8,353.1,102.6,350.4,98.1z"/>
	<path class="st2" d="M354.7,98.1c22.7,52.4,35.6,114.7,44.6,180.7C385.7,217.3,372.5,155.4,354.7,98.1z"/>
	<path class="st2" d="M348.3,105.5c1.6,1.5,2.2,4.1,2.1,7.4C347.4,112.8,348.5,108.5,348.3,105.5z"/>
	<path class="st2" d="M389.8,109.8c0.8-1.9,1.9-0.2,3.2,0c10.4,23.1,20.6,55.1,26.6,86.1C409.1,167.7,399.4,138.8,389.8,109.8z"/>
	<path class="st2" d="M367.4,117.2c2.2,3.9,4.7,7.3,5.3,12.8C370.2,128.8,368.5,122.9,367.4,117.2z"/>
	<path class="st2" d="M327,118.3c2.8,5.2-2.5,18-1.1,3.2C327.2,121.3,326.9,119.5,327,118.3z"/>
	<path class="st2" d="M414.2,157.6c-2.8-8-6.5-18.2-9.6-28.7C409.4,136.3,415,148.2,414.2,157.6z"/>
	<path class="st2" d="M382.3,166.1c2.1,1.4,2.4,4.7,3.2,7.4C382,173.5,383.2,168.8,382.3,166.1z"/>
	<path class="st2" d="M384.4,176.8c4.5,1.9,5,9.8,6.4,15.9c3.9,16.7,10.3,42.4,11.7,59.5c0.2,2.7-0.3,28-1.1,8.5
		C397.1,231.4,391.8,203,384.4,176.8z"/>
	<path class="st1" d="M99.5,180c1.8,0,3.5,0,5.3,0c-2,2.6-0.7,8.5-1.1,12.8c-3,0.9-2.8-1.5-5.3-1.1C97.7,186.6,99.7,184.3,99.5,180z
		"/>
	<path class="st3" d="M266.4,182.1c10.3,12.3-6.3,32.7-19.1,22.3C243.2,191,252.8,177.8,266.4,182.1z"/>
	<path class="st3" d="M282.4,212.9c-3.3-16.9,17.7-29.4,24.5-18.1C315.5,209.4,292.3,228.9,282.4,212.9z"/>
	<path class="st4" d="M101.7,200.2c-4.1,5.9-11.5,8.4-22.3,7.4C78.5,196.5,94,199.6,101.7,200.2z"/>
	<path class="st2" d="M159.1,202.3c-6.4,4.7-17.4,0.9-3.2,1.1C156.7,203.4,157.6,201.8,159.1,202.3z"/>
	<path class="st4" d="M102.7,216.1c0.2,11.7-20.2,16.3-26.6,8.5C71.6,213.7,102,213,102.7,216.1z"/>
	<path class="st3" d="M221.8,217.2c0.3,2.5-0.2,4.1-1.1,5.3c-4.2,0.6-4.7-2.4-5.3-5.3C217.4,215.1,219.3,216.8,221.8,217.2z"/>
	<path class="st3" d="M261.1,221.4c11.5-0.7,18.3,5,19.1,13.8c2.3,24.1-40.1,23.8-37.2-1.1C244.1,225.7,250.6,222.1,261.1,221.4z
		 M252.6,239.5c5.1,9.2,22.6,2.1,15.9-9.6C261,228.4,251.2,229.1,252.6,239.5z"/>
	<path class="st3" d="M202.7,224.6c4.3-0.4,6.7,1.1,6.4,5.3C205.8,232.6,201.5,229.6,202.7,224.6z"/>
	<path class="st3" d="M217.5,225.7c4.2-0.3,5.8,2,5.3,6.4c-1.2-0.2-1.9,0.2-2.1,1.1c-3.6,0.4-3.2-3.2-5.3-4.3
		C215.8,227.5,217.3,227.2,217.5,225.7z"/>
	<path class="st5" d="M268.6,229.9c6.6,11.7-10.8,18.8-15.9,9.6C251.2,229.1,261,228.4,268.6,229.9z"/>
	<path class="st4" d="M102.7,235.2c-0.2,7.3-15.5,11.1-18.1,3.2C90.4,237.8,98.8,234.1,102.7,235.2z"/>
	<path class="st3" d="M212.2,240.6c-2.6,2.3-7.9,0.8-7.4-3.2C205.5,231.8,214.2,234.3,212.2,240.6z"/>
	<path class="st3" d="M218.6,235.2c3.8-0.6,5.5,0.9,6.4,3.2c0.8,2.9-2.1,2.1-2.1,4.3c-2.6,0.2-3.3-1.7-5.3-2.1
		C217.2,238.1,217.7,236.5,218.6,235.2z"/>
	<path class="st3" d="M300.5,241.6c-3,2.4-8.5,0.6-7.4-4.3C296,234.9,301.5,236.8,300.5,241.6z"/>
	<path class="st2" d="M404.6,236.3c1.2,2.5,1.9,3.9,2.1,5.3C408.7,253.5,403.6,248.3,404.6,236.3z"/>
	<path class="st3" d="M318.5,244.8c0.8,3.2-1.1,3.9-1.1,6.4c-4.1,0.2-7.4-0.4-6.4-5.3C312.5,244.4,315.7,244.8,318.5,244.8z"/>
	<path class="st3" d="M307.9,251.2c0.4,6-10,5.5-8.5-1.1C301.7,247.9,306.5,249.3,307.9,251.2z"/>
	<path class="st3" d="M294.1,256.5c-2,2.1-5,0.5-7.4,0C284.3,247.9,296,248.9,294.1,256.5z"/>
	<path class="st2" d="M406.8,252.2c2.1-2,0.6,8.5,1.1,11.7C405.7,266,407.2,255.4,406.8,252.2z"/>
	<path class="st3" d="M319.6,255.4c0.9,3-1.5,2.8-1.1,5.3c-5.1,1.1-8.2-3.8-6.4-6.4C314.5,252,317.5,254.4,319.6,255.4z"/>
	<path class="st3" d="M304.7,263.9c-1,0.8-1.6,1.9-2.1,3.2c-4.8,0.6-6.9-1.6-6.4-6.4C299.3,257.8,304,259.1,304.7,263.9z"/>
	<path class="st3" d="M229.2,269.3c1,4.5-2.5,4.5-6.4,4.3c4.3,8.1,8.2,16.6,15.9,21.3c15.6,1,21.8-7.3,30.8-12.8
		c-1-2.6-4.3-2.8-3.2-7.4c8.9,2.4,21.3,6,19.1,15.9c-5.9,2.1-3.7-3.2-5.3-3.2c-3,0-9.7,14.2-9.6,13.8c-2.9,8.9-1.1,19.8-3.2,26.6
		c-7.9,25.5-54.9,29.7-59.5-3.2c-2.5-17.6,9.7-25.4,6.4-46.8c-3.8,1.2-6.8,4.9-11.7,2.1C203.9,269.5,219.7,264.5,229.2,269.3z"/>
	<path class="st2" d="M399.3,279.9c1.7,2.2,3.6,8.3-1.1,8.5C398.5,283.1,398.7,283.9,399.3,279.9z"/>
	<path class="st6" d="M111.2,329.9c-4.5,5.1-13.9,5.3-20.2,8.5C85.6,325,107.4,316.7,111.2,329.9z"/>
	<path class="st6" d="M115.5,338.4c-1.5,3.3-7.6,2.1-7.4-2.1C111.6,334.4,114,335.5,115.5,338.4z"/>
	<path class="st6" d="M108,343.7c-6.5,2.5-17.3,0.4-12.8,11.7c1.8,0,3.5,0,5.3,0c2-4.7,6.3-7.1,10.6-9.6c6.8,5.1,2.3,20.9,10.6,26.6
		c-7.3,1.4-22-1.6-30.8,1.1c-1.9-9.1-5.1-21.4-2.1-31.9C97.2,341.5,105.1,334.9,108,343.7z"/>
	<path class="st4" d="M137.8,355.4c-2.5,3.9-6.9,2.5-11.7,2.1C128.3,353.9,133.6,354.4,137.8,355.4z"/>
	<path class="st6" d="M94.2,376.6c10.4,0.2,22.3-1,29.8,2.1c-8.6,4.2-13.3,12.2-23.4,14.9C98.4,388.5,92.9,381.8,94.2,376.6z"/>
	<path class="st3" d="M132.5,401.1c1.6,0.6,2.7,1.6,4.3,2.1c-2.9,12.1-10.6,24.8-24.5,22.3C120.7,419.1,130.7,414.2,132.5,401.1z"/>
	<path class="st4" d="M261.1,421.3c2.2,4.3-1.5,11.9-5.3,13.8C253.6,430.3,258.6,424.7,261.1,421.3z"/>
	<path class="st6" d="M277.1,438.3c2.9,4.2-3.7,16.7-3.2,25.5c-8.8,6.5-16.8,13.7-29.8,15.9c-2-3.7-0.4-10.9-3.2-13.8
		c2.6-5.6,5.3-11,11.7-12.8c1.9,1.4-1.7,6.2,1.1,8.5c5.3,0.7,6.7-2.6,7.4-6.4c-0.3-3.6-4.5-3.3-7.4-4.3
		C255.9,441.3,271.6,444.9,277.1,438.3z"/>
	<path class="st6" d="M282.4,439.4c3.4,1.2,4.3,4.9,6.4,7.4c-1,5.7-7.5,6-8.5,11.7C277,452.4,282.9,446.3,282.4,439.4z"/>
	<path class="st6" d="M246.2,450c-0.7,4.6-5.5,5.1-6.4,9.6c-2.1-1.4-3.6-3.5-4.3-6.4C239.9,452.9,240.9,449.2,246.2,450z"/>
	<path class="st6" d="M231.4,456.4c6.7,4.7,6.7,16,8.5,25.5c-8.6,0.5-16.2-0.2-20.2-4.3C219.5,466.5,226.5,462.4,231.4,456.4z"/>
	<path class="st0" d="M306.8,60.9c-0.4-2.6,1.9-2.3,1.1-5.3c3.8,2.6,5.7,7,8.5,10.6C317.7,67.9,310,61.7,306.8,60.9z"/>
	<path class="st0" d="M357.9,68.3c6.5-4,9.4,4.8,14.9,5.3C369.4,78,365,67.1,357.9,68.3z"/>
	<path class="st2" d="M296.2,70.5c-2.9,3.9-14.3,8.4-21.3,11.7C280.9,77.1,288.5,73.8,296.2,70.5z"/>
	<path class="st2" d="M279.2,73.6c-26.6,15.1-53.1,32.4-76.5,53.2c-7.3,6.5-18.1,13.7-22.3,20.2c-3.8,6-8.6,15.6-17,21.3
		c4.5-7.9,14.6-17.7,14.9-18.1C202.8,120.5,236.6,85.3,279.2,73.6z"/>
	<path class="st3" d="M321.7,32.2c3.2,0,6.4,0,9.6,0c11.1,1.8,15.6,14.3,9.6,24.5c3.8-0.2,6.4,0.7,7.4,3.2
		c20.7-16.8,51.4,5.2,30.8,26.6c57.1,32.5,63.4,134.4,33,199.9c7.3-0.3,18.3-7.7,24.5-2.1c-4.1,3.7-13.3,2.3-18.1,5.3
		c5.1,2.7,16.2-0.6,17,6.4c-8.4,0.6-17.1-4.2-24.5-1.1c7.8,1.4,15.8,2.6,17,10.6c-7.4-2.5-12.3-7.6-22.3-7.4
		c2.3,6.6,13.1,10.2,11.7,17c-6.5,0.5-7.4-10.2-11.7-8.5c2.4,3.6,7.7,10,5.3,14.9c-7-1.1-5.1-11.2-10.6-13.8
		c-1.3,6.8-6.6,9.7-8.5,15.9c17,7.8,24.5,30.5,4.3,41.5c-3.3,1.8-7.8,1.1-11.7,3.2c-7.2,3.8-12.1,14.4-23.4,8.5
		c-20.9,17.8-46.1,36.7-78.7,39.3c5.5,12.6,14.5,21.6,20.2,34c-15,15.5-32.5,38.1-60.6,41.5c-16.5,2-32.6-2.7-34-15.9
		c-2.3-21.4,20.1-29,34-37.2c-3.8-2.5-9.7-3-10.6-8.5c-0.1-3.6,8-2.4,4.3-6.4c-0.5-2-2.3-2.7-2.1-5.3c-32.2-8.2-55.6-25.2-76.5-44.6
		c-20.2,9.2-36.2,22.6-55.3,33c-27.2-7.5-38-88.1-6.4-93.6c15.6-2.7,24.5,10.3,29.8,23.4c4.3-3.1,4.9,6.9,7.4,5.3
		c-5.7-24.1-18.9-63.2-9.6-95.7c-11.7-5.9-17.2,5.3-26.6,6.4c-18.9,2.1-18.5-14.3-30.8-26.6c0-3.2,0-6.4,0-9.6
		c9.9-2.8,0.3-12.7,5.3-19.1c3.2-4.1,7.3-3.1,17-4.3c5.4-51.7,6.3-101.1,9.6-151c6.6-4.3,20.4-5.7,26.6,0
		c-4.8,43.7-4.7,80.9-8.5,127.6c11.2-0.8,20.5,2.8,22.3,11.7c1.3,6.5-4.2,13.3-2.1,17C169.7,132.5,208,71.2,296.2,59.8
		C298.8,44.7,308.2,36.3,321.7,32.2z M178.2,150.2c-0.3,0.3-10.3,10.2-14.9,18.1c8.4-5.7,13.2-15.3,17-21.3
		c4.2-6.5,15-13.7,22.3-20.2c23.4-20.7,50-38,76.5-53.2C236.6,85.3,202.8,120.5,178.2,150.2z M331.3,53.5c-1.5-4.9-9.6-8.8-13.8-7.4
		C323.3,46.8,326.6,54.9,331.3,53.5z M108,71.5c2.6-4.3,2.9-13.9,3.2-23.4c-1.8,0-3.5,0-5.3,0C107.6,57,103.3,65.5,108,71.5z
		 M322.8,60.9c-4-1.8,2.3-1.8,2.1-3.2c-4.1-1.6-8.7-8.3-12.8-6.4C317.1,52.5,317.9,63.2,322.8,60.9z M316.4,66.2
		c-2.8-3.6-4.7-8-8.5-10.6c0.9,3-1.5,2.8-1.1,5.3C310,61.7,317.7,67.9,316.4,66.2z M332.4,76.8c0.8-3.1,6.8-11.1,2.1-12.8
		C331.3,66.3,325.8,74.3,332.4,76.8z M341.9,74.7c0.3-3.6,3.7-6.5,0-8.5C343.4,69.9,338.9,73,341.9,74.7z M372.8,73.6
		c-5.5-0.6-8.4-9.3-14.9-5.3C365,67.1,369.4,78,372.8,73.6z M274.9,82.2c7-3.3,18.4-7.8,21.3-11.7C288.5,73.8,280.9,77.1,274.9,82.2
		z M367.4,83.2c1.3-4.8-6.8-8.6-12.8-9.6C357.7,78.1,362.4,80.8,367.4,83.2z M255.8,101.3c-33.3,25.3-69.6,49.3-92.5,80.8
		c41.8-36.1,88.6-73,130.8-105.2C280.7,83.7,268,92,255.8,101.3z M246.2,121.5c-20.6,19.5-47.3,31.5-64.8,51
		c42.7-31,82.7-64.7,126.5-94.6C283.6,86.1,262.6,106,246.2,121.5z M289.8,104.5c5.1-4.6,12.1-11.7,15.9-13.8
		c2.1-1.1,13.9-7.2,10.6-10.6c-2,2.6-4.7,4.5-8.5,5.3c-3.2,1.9,2.9,3.3,0,4.3c-39.1,29.5-82.2,66.4-126.5,92.5c-3,1.8-9.8,3-9.6,6.4
		C218.6,170.7,256,135.3,289.8,104.5z M361.1,86.4c-4-0.6-7.2-7.6-10.6-5.3C353.9,82.3,358,91.5,361.1,86.4z M182.5,154.4
		c27.8-25.7,63-49.7,90.4-72.3C239.8,102.6,204.1,126.2,182.5,154.4z M160.1,198c46.1-11.3,78.1-36,107.4-62.7
		c17.7-16.2,34.5-32.8,48.9-50C271.6,130.2,225.4,173.6,160.1,198z M338.7,100.2c-0.4-3.2,1-13.7-1.1-11.7
		C338.1,91.7,336.6,102.2,338.7,100.2z M334.5,96c0-1.9,2.9-6.2,0-7.4C334.5,90.4,331.6,94.7,334.5,96z M361.1,216.1
		c8.9,23.9,16.9,47.1,30.8,63.8c-30.1-49.6-41.3-118.2-50-189.2C343.8,139,347.7,180.3,361.1,216.1z M349.4,102.4
		c-2.3-2.3-0.1-9.1-4.3-9.6C346.9,95,346.3,105,349.4,102.4z M163.3,203.3c50-4.8,86-40.9,122.3-71.2c8.3-13,22.9-25.3,28.7-37.2
		C273.1,140.2,228.4,181.9,163.3,203.3z M407.8,228.9c1.1,5.4-0.1,13.1,5.3,17c-9.4-55-20.2-108.8-42.5-151
		C386.5,134,398.7,185,407.8,228.9z M385.5,120.4c11.2,31.2,25.8,73.6,28.7,110.6c4.1-6.2,4.2-15.3,3.2-22.3
		c-3.1-22.1-12.2-41.8-19.1-62.7c-7-21-12.3-39.4-21.3-51c-1.3,0.2-3-0.2-3.2,1.1C382.5,100.9,382.2,111.2,385.5,120.4z
		 M392.9,184.2c-4.7-22.8-11.6-47.2-18.1-68c-2-6.5-4.5-15.2-9.6-18.1C376.2,125.1,383.5,155.8,392.9,184.2z M286.6,100.2
		c-3.8-1.5-6.7,3.1-9.6,5.3c-26.6,20-53.9,41.4-79.7,60.6C231.3,148.4,256.6,121.9,286.6,100.2z M355.7,114
		c-1.3-5.7-0.2-13.9-5.3-15.9C353.1,102.6,351.9,110.8,355.7,114z M399.3,278.8c-9.1-66-21.9-128.3-44.6-180.7
		C372.5,155.4,385.7,217.3,399.3,278.8z M327,111.9c3.3,0.3,3.6-12,2.1-9.6C329.1,106.2,327.5,108.5,327,111.9z M338.7,103.4
		c-6.3,38.4,3.6,89.9,17,121.2c5.6,13.1,11.6,28,17,36.1c1.7,2.6,3.6,8.2,6.4,6.4C354.6,223.6,339.2,170.9,338.7,103.4z
		 M333.4,106.6c0-6.7-1.8,0-1.1,3.2c-9.8,61.4,9.8,120.1,37.2,157.3c2.3,2.9,1.2,2.6,2.1,6.4c6,5.4,12,10.7,18.1,15.9
		C355.9,250.8,327.5,184.9,333.4,106.6z M350.4,113c0.1-3.3-0.5-5.9-2.1-7.4C348.5,108.5,347.4,112.8,350.4,113z M419.5,195.9
		c-6-31-16.2-63-26.6-86.1c-1.3-0.2-2.4-1.9-3.2,0C399.4,138.8,409.1,167.7,419.5,195.9z M138.9,211.9c-4.3-5.3-15.1-4-21.3-7.4
		c2.6-8.1,17.7-25.1-2.1-25.5c-2.6,14.8,2.1,33.3-4.3,48.9c4,10.2,19.4,5,26.6,7.4c0,1.1,0.9,1.3,1.1,2.1
		c-16.5,29.8-3.5,81.7,8.5,106.3c-1.4,5.7-9,5.2-12.8,8.5c4.8-0.9,6.6,1.2,7.4,4.3c-1.5,5.2-7.4,6-14.9,5.3
		c1.8,4.2,2.4,9.7,7.4,10.6c6.5-0.5,17.1-13.4,26.6-10.6c3.1,0.9,8.6,8.7,13.8,13.8c13.6,13.2,33,25.9,52.1,30.8
		c4.9,1.3,10,0.2,12.8,2.1c6.4,4.6,4.8,19.2,12.8,20.2c1.6-5.9,4.5-10.4,10.6-11.7c6.4,3.8-0.1,13.3,1.1,17c4-2.7,10-3.4,11.7-8.5
		c-3.2-4.9-6.9-9.4-6.4-18.1c32.3-2.7,55.5-14.7,73.4-31.9c-13.1-0.8-16-14.7-10.6-25.5c-21.4-5.5-7.6-35.4,14.9-26.6
		c0.3-10.7-1.3-23.3,6.4-26.6c2.4,1.1,4.7,2.4,6.4,4.3c-5.5,12.1,3.6,26.8-5.3,34c-5.7-4.5-23.7-8.1-22.3,5.3
		c6.4,3.2,15.3-6.9,19.1,2.1c-2.4,8.3-14.5,12.2-9.6,24.5c11.8,3.3,11.7-13.6,17-20.2c3.3-0.1,5.9,0.5,7.4,2.1
		c2,8.9-5.2,13.6-2.1,20.2c13.4-0.2,13.5-13.2,11.7-23.4c8.1-3.8,13.3,2.4,11.7,11.7c26.4-15.2-10.3-27.3-13.8-40.4
		c1.4-2.1,7.1-3.2,9.6-1.1c2.6-6.2,6.5-11.2,9.6-17c-61.3-25.5-88.5-103-76.5-188.2C273,159.1,226.6,214.9,138.9,211.9z
		 M389.8,269.3c-16.8-48.4-27.3-103.1-40.4-155.2C357.5,171.1,367.7,226.2,389.8,269.3z M196.3,122.6c-8.5,10.5,8-4.9,7.4-6.4
		C200.4,119.4,198.4,119.9,196.3,122.6z M372.8,130c-0.6-5.4-3.2-8.9-5.3-12.8C368.5,122.9,370.2,128.8,372.8,130z M326,121.5
		c-1.4,14.8,3.8,2,1.1-3.2C326.9,119.5,327.2,121.3,326,121.5z M417.4,169.3c-1.5,0.6-2.6-4.1-3.2-1.1c3.3,1,2.6,5.9,5.3,7.4
		c-0.6-7.2-2-13.6-4.3-19.1C413.5,161.8,417,164.3,417.4,169.3z M404.6,128.9c3.1,10.5,6.8,20.7,9.6,28.7
		C415,148.2,409.4,136.3,404.6,128.9z M360,261.8c-19.3-33.9-35.9-76.7-34-125.4c0.8-3.4-1.3-8.1-1.1-2.1c0,3.5,0,7.1,0,10.6
		c-1,49.8,13.1,99.9,37.2,116.9C361.4,261.8,360.7,261.8,360,261.8z M388.7,253.3c-6.2-35.6-17.2-82.5-28.7-118
		C367.2,177,377.7,215.4,388.7,253.3z M151.6,185.3c11.2-6.5,21.2-19.9,26.6-28.7C170.2,166.3,159,178.4,151.6,185.3z M385.5,173.6
		c-0.8-2.7-1.1-6-3.2-7.4C383.2,168.8,382,173.5,385.5,173.6z M186.7,173.6c2.1-0.9,6.1-3,10.6-6.4
		C191.1,169,180.3,176.4,186.7,173.6z M401.5,260.8c0.7,19.5,1.3-5.8,1.1-8.5c-1.4-17.1-7.8-42.9-11.7-59.5
		c-1.4-6.1-1.9-14-6.4-15.9C391.8,203,397.1,231.4,401.5,260.8z M155.9,192.7c8.2-3.1,18.8-9.5,21.3-14.9
		C171.1,183.8,162.4,187.2,155.9,192.7z M155.9,187.4c1.6,2.1-4.6,5.3-6.4,7.4c6.4-4.9,18.9-9.5,20.2-15.9
		C167.1,183.6,159.1,186.6,155.9,187.4z M98.5,191.7c2.6-0.4,2.3,1.9,5.3,1.1c0.4-4.2-1-10.2,1.1-12.8c-1.8,0-3.5,0-5.3,0
		C99.7,184.3,97.7,186.6,98.5,191.7z M156.9,198c0.5,1.7-5.8,1.7-5.3,0c5.1-2,10.5-3.7,13.8-7.4c-5.9,3.7-14.5,4.3-18.1,8.5
		c3.5-4.2,0.3,5,1.1,3.2C149.2,199.5,159.9,201.1,156.9,198z M79.3,207.6c10.8,0.9,18.3-1.6,22.3-7.4
		C94,199.6,78.5,196.5,79.3,207.6z M155.9,203.3c-14.2-0.2-3.2,3.6,3.2-1.1C157.6,201.8,156.7,203.4,155.9,203.3z M76.1,224.6
		c6.4,7.8,26.7,3.2,26.6-8.5C102,213,71.6,213.7,76.1,224.6z M404.6,228.9c-0.4-2.7-1.9-4.7-3.2-8.5
		C401.4,229.1,406.5,239.7,404.6,228.9z M84.7,238.4c2.6,7.9,17.9,4.1,18.1-3.2C98.8,234.1,90.4,237.8,84.7,238.4z M406.8,241.6
		c-0.2-1.4-0.9-2.8-2.1-5.3C403.6,248.3,408.7,253.5,406.8,241.6z M407.8,263.9c-0.4-3.2,1-13.7-1.1-11.7
		C407.2,255.4,405.7,266,407.8,263.9z M389.8,282c-3.3-0.6-6.6-11.3-7.4-7.4C385.3,275.9,385.3,285.7,389.8,282z M398.3,288.4
		c4.7-0.2,2.7-6.3,1.1-8.5C398.7,283.9,398.5,283.1,398.3,288.4z M91,338.4c6.3-3.2,15.7-3.4,20.2-8.5
		C107.4,316.7,85.6,325,91,338.4z M108,336.2c-0.1,4.2,5.9,5.4,7.4,2.1C114,335.5,111.6,334.4,108,336.2z M88.9,341.5
		c-3,10.5,0.3,22.8,2.1,31.9c8.9-2.6,23.5,0.4,30.8-1.1c-8.4-5.7-3.8-21.5-10.6-26.6c-4.3,2.4-8.6,4.9-10.6,9.6c-1.8,0-3.5,0-5.3,0
		c-4.5-11.3,6.2-9.2,12.8-11.7C105.1,334.9,97.2,341.5,88.9,341.5z M126.1,357.5c4.8,0.4,9.2,1.8,11.7-2.1
		C133.6,354.4,128.3,353.9,126.1,357.5z M100.6,393.6c10.1-2.7,14.8-10.7,23.4-14.9c-7.5-3.1-19.3-1.9-29.8-2.1
		C92.9,381.8,98.4,388.5,100.6,393.6z M255.8,435.1c3.8-1.9,7.5-9.5,5.3-13.8C258.6,424.7,253.6,430.3,255.8,435.1z M253.7,451
		c3,0.9,7.2,0.6,7.4,4.3c-0.8,3.8-2.1,7.1-7.4,6.4c-2.8-2.4,0.8-7.1-1.1-8.5c-6.4,1.7-9.1,7.2-11.7,12.8c2.8,2.9,1.2,10.1,3.2,13.8
		c13-2.3,21-9.5,29.8-15.9c-0.6-8.8,6.1-21.3,3.2-25.5C271.6,444.9,255.9,441.3,253.7,451z M280.3,458.5c1-5.7,7.5-6,8.5-11.7
		c-2-2.6-3-6.2-6.4-7.4C282.9,446.3,277,452.4,280.3,458.5z M235.6,453.2c0.7,2.9,2.1,5,4.3,6.4c0.8-4.5,5.7-4.9,6.4-9.6
		C240.9,449.2,239.9,452.9,235.6,453.2z M219.7,477.6c4,4.1,11.6,4.7,20.2,4.3c-1.8-9.6-1.8-20.8-8.5-25.5
		C226.5,462.4,219.5,466.5,219.7,477.6z"/>
	<path class="st2" d="M294.1,76.8C251.9,109,205.2,146,163.3,182.1c22.9-31.5,59.2-55.5,92.5-80.8C268,92,280.7,83.7,294.1,76.8z"/>
	<path class="st2" d="M307.9,77.9c-43.8,29.9-83.8,63.6-126.5,94.6c17.5-19.5,44.3-31.6,64.8-51C262.6,106,283.6,86.1,307.9,77.9z"
		/>
	<path class="st2" d="M171.8,188.5c-0.3-3.4,6.5-4.6,9.6-6.4c44.3-26.1,87.4-63,126.5-92.5c2.9-1-3.2-2.4,0-4.3
		c3.8-0.8,6.5-2.7,8.5-5.3c3.3,3.4-8.6,9.5-10.6,10.6c-3.9,2.1-10.9,9.2-15.9,13.8C256,135.3,218.6,170.7,171.8,188.5z"/>
	<path class="st2" d="M272.8,82.2c-27.4,22.6-62.5,46.6-90.4,72.3C204.1,126.2,239.8,102.6,272.8,82.2z"/>
	<path class="st2" d="M316.4,85.3c-14.4,17.2-31.2,33.8-48.9,50c-29.2,26.7-61.3,51.5-107.4,62.7
		C225.4,173.6,271.6,130.2,316.4,85.3z"/>
	<path class="st2" d="M341.9,90.7c8.7,71.1,19.8,139.6,50,189.2c-13.9-16.6-21.9-39.8-30.8-63.8C347.7,180.3,343.8,139,341.9,90.7z"
		/>
	<path class="st2" d="M314.3,94.9c-5.8,12-20.4,24.2-28.7,37.2c-36.3,30.3-72.3,66.4-122.3,71.2C228.4,181.9,273.1,140.2,314.3,94.9
		z"/>
	<path class="st2" d="M370.6,94.9c22.3,42.2,33.1,95.9,42.5,151c-5.4-3.9-4.2-11.6-5.3-17C398.7,185,386.5,134,370.6,94.9z"/>
	<path class="st2" d="M365.3,98.1c5.1,2.8,7.5,11.6,9.6,18.1c6.5,20.9,13.4,45.2,18.1,68C383.5,155.8,376.2,125.1,365.3,98.1z"/>
	<path class="st2" d="M197.3,166.1c25.9-19.2,53.1-40.6,79.7-60.6c2.9-2.2,5.8-6.8,9.6-5.3C256.6,121.9,231.3,148.4,197.3,166.1z"/>
	<path class="st2" d="M329.2,102.4c1.5-2.4,1.2,9.8-2.1,9.6C327.5,108.5,329.1,106.2,329.2,102.4z"/>
	<path class="st2" d="M379.1,267.1c-2.7,1.8-4.7-3.8-6.4-6.4c-5.4-8.2-11.4-23-17-36.1c-13.4-31.3-23.3-82.8-17-121.2
		C339.2,170.9,354.6,223.6,379.1,267.1z"/>
	<path class="st2" d="M389.8,289.5c-6.1-5.3-12.1-10.6-18.1-15.9c-0.9-3.7,0.2-3.5-2.1-6.4c-27.4-37.2-47-96-37.2-157.3
		c-0.7-3.2,1-9.9,1.1-3.2C327.5,184.9,355.9,250.8,389.8,289.5z"/>
	<path class="st2" d="M349.4,114c13.1,52.2,23.6,106.9,40.4,155.2C367.7,226.2,357.5,171.1,349.4,114z"/>
	<path class="st2" d="M203.7,116.2c0.6,1.5-16,16.9-7.4,6.4C198.4,119.9,200.4,119.4,203.7,116.2z"/>
	<path class="st2" d="M415.3,156.6c2.3,5.5,3.6,11.9,4.3,19.1c-2.7-1.6-2.1-6.4-5.3-7.4c0.6-3.1,1.7,1.6,3.2,1.1
		C417,164.3,413.5,161.8,415.3,156.6z"/>
	<path class="st2" d="M362.1,261.8c-24.2-17.1-38.2-67.2-37.2-116.9c0-3.5,0-7.1,0-10.6c-0.2-5.9,1.9-1.3,1.1,2.1
		c-1.9,48.8,14.7,91.5,34,125.4C360.7,261.8,361.4,261.8,362.1,261.8z"/>
	<path class="st2" d="M360,135.3c11.5,35.5,22.5,82.4,28.7,118C377.7,215.4,367.2,177,360,135.3z"/>
	<path class="st2" d="M178.2,156.6c-5.4,8.8-15.4,22.2-26.6,28.7C159,178.4,170.2,166.3,178.2,156.6z"/>
	<path class="st2" d="M197.3,167.2c-4.5,3.4-8.6,5.5-10.6,6.4C180.3,176.4,191.1,169,197.3,167.2z"/>
	<path class="st2" d="M177.1,177.8c-2.4,5.4-13.1,11.7-21.3,14.9C162.4,187.2,171.1,183.8,177.1,177.8z"/>
	<path class="st2" d="M169.7,178.9c-1.3,6.5-13.8,11-20.2,15.9c1.8-2.1,8-5.4,6.4-7.4C159.1,186.6,167.1,183.6,169.7,178.9z"/>
	<path class="st2" d="M148.4,202.3c-0.8,1.8,2.4-7.4-1.1-3.2c3.5-4.2,12.2-4.8,18.1-8.5c-3.4,3.7-8.7,5.5-13.8,7.4
		c-0.5,1.7,5.8,1.7,5.3,0C159.9,201.1,149.2,199.5,148.4,202.3z"/>
	<path class="st2" d="M401.5,220.4c1.3,3.8,2.7,5.9,3.2,8.5C406.5,239.7,401.4,229.1,401.5,220.4z"/>
	<path class="st2" d="M382.3,274.6c0.9-3.9,4.1,6.9,7.4,7.4C385.3,285.7,385.3,275.9,382.3,274.6z"/>
	<path class="st4" d="M316.4,110.9C304.5,196,331.7,273.5,392.9,299c-3.1,5.8-6.9,10.8-9.6,17c-2.5-2.1-8.2-1.1-9.6,1.1
		c3.5,13.1,40.3,25.2,13.8,40.4c1.6-9.3-3.6-15.5-11.7-11.7c1.8,10.2,1.7,23.2-11.7,23.4c-3.1-6.6,4.1-11.3,2.1-20.2
		c-1.5-1.6-4.1-2.2-7.4-2.1c-5.3,6.6-5.2,23.5-17,20.2c-5-12.2,7.1-16.1,9.6-24.5c-3.8-9-12.7,1-19.1-2.1
		c-1.4-13.4,16.6-9.8,22.3-5.3c9-7.2-0.2-21.9,5.3-34c-1.7-1.8-4-3.1-6.4-4.3c-7.7,3.3-6.1,15.9-6.4,26.6
		c-22.5-8.8-36.2,21.1-14.9,26.6c-5.4,10.9-2.4,24.7,10.6,25.5c-17.9,17.2-41,29.2-73.4,31.9c-0.5,8.7,3.1,13.2,6.4,18.1
		c-1.7,5.1-7.7,5.8-11.7,8.5c-1.2-3.7,5.3-13.2-1.1-17c-6.1,1.3-9,5.8-10.6,11.7c-7.9-1-6.3-15.6-12.8-20.2
		c-2.7-1.9-7.9-0.9-12.8-2.1c-19.1-4.9-38.5-17.6-52.1-30.8c-5.3-5.1-10.7-12.9-13.8-13.8c-9.5-2.8-20.1,10.1-26.6,10.6
		c-5.1-1-5.7-6.4-7.4-10.6c7.5,0.7,13.3-0.1,14.9-5.3c-0.8-3.1-2.6-5.2-7.4-4.3c3.8-3.3,11.3-2.8,12.8-8.5
		c-12-24.7-25-76.5-8.5-106.3c-0.2-0.9-1.1-1.1-1.1-2.1c-7.2-2.5-22.6,2.8-26.6-7.4c6.4-15.6,1.7-34.1,4.3-48.9
		c19.8,0.4,4.7,17.4,2.1,25.5c6.2,3.4,17,2.1,21.3,7.4C226.6,214.9,273,159.1,316.4,110.9z M247.3,204.4
		c12.8,10.4,29.5-10.1,19.1-22.3C252.8,177.8,243.2,191,247.3,204.4z M306.8,194.8c-6.8-11.4-27.7,1.2-24.5,18.1
		C292.3,228.9,315.5,209.4,306.8,194.8z M215.4,217.2c0.6,2.9,1.1,6,5.3,5.3c0.9-1.2,1.4-2.8,1.1-5.3
		C219.3,216.8,217.4,215.1,215.4,217.2z M243.1,234.2c-2.9,24.8,39.5,25.2,37.2,1.1c-0.8-8.8-7.7-14.5-19.1-13.8
		C250.6,222.1,244.1,225.7,243.1,234.2z M209,229.9c0.3-4.2-2-5.8-6.4-5.3C201.5,229.6,205.8,232.6,209,229.9z M215.4,228.9
		c2.1,1.1,1.7,4.7,5.3,4.3c0.2-0.8,0.9-1.2,2.1-1.1c0.4-4.3-1.1-6.7-5.3-6.4C217.3,227.2,215.8,227.5,215.4,228.9z M204.8,237.4
		c-0.4,4,4.8,5.5,7.4,3.2C214.2,234.3,205.5,231.8,204.8,237.4z M217.5,240.6c2,0.5,2.7,2.3,5.3,2.1c0-2.1,2.9-1.4,2.1-4.3
		c-0.9-2.3-2.6-3.8-6.4-3.2C217.7,236.5,217.2,238.1,217.5,240.6z M293,237.4c-1,4.8,4.5,6.7,7.4,4.3
		C301.5,236.8,296,234.9,293,237.4z M311.1,245.9c-1,4.9,2.2,5.6,6.4,5.3c0-2.5,1.8-3.1,1.1-6.4
		C315.7,244.8,312.5,244.4,311.1,245.9z M299.4,250.1c-1.5,6.6,8.9,7,8.5,1.1C306.5,249.3,301.7,247.9,299.4,250.1z M286.6,256.5
		c2.4,0.5,5.4,2.1,7.4,0C296,248.9,284.3,247.9,286.6,256.5z M312.2,254.4c-1.8,2.6,1.2,7.4,6.4,6.4c-0.4-2.6,1.9-2.3,1.1-5.3
		C317.5,254.4,314.5,252,312.2,254.4z M296.2,260.8c-0.6,4.8,1.6,6.9,6.4,6.4c0.5-1.3,1.1-2.4,2.1-3.2
		C304,259.1,299.3,257.8,296.2,260.8z M202.7,279.9c4.8,2.8,7.9-0.9,11.7-2.1c3.3,21.3-8.8,29.2-6.4,46.8
		c4.6,32.9,51.6,28.7,59.5,3.2c2.1-6.8,0.3-17.7,3.2-26.6c-0.1,0.4,6.6-13.8,9.6-13.8c1.6,0-0.6,5.3,5.3,3.2
		c2.2-10-10.3-13.5-19.1-15.9c-1.1,4.6,2.2,4.9,3.2,7.4c-9,5.5-15.3,13.8-30.8,12.8c-7.7-4.7-11.6-13.2-15.9-21.3
		c3.8,0.3,7.4,0.3,6.4-4.3C219.7,264.5,203.9,269.5,202.7,279.9z"/>
</g>
</svg>
